<svg id="visual" viewBox="0 0 1920 1220" width="1920" height="1220" xmlns="http://www.w3.org/2000/svg" xmlns:xlink="http://www.w3.org/1999/xlink" version="1.1"><rect x="0" y="0" width="1920" height="1220" fill="#60db4f"></rect><path d="M0 963L83 1191L167 1178L250 1079L334 1206L417 877L501 1154L584 1138L668 993L751 971L835 1055L918 1034L1002 892L1085 923L1169 1096L1252 985L1336 1153L1419 953L1503 1125L1586 1007L1670 885L1753 961L1837 1110L1920 895L1920 0L1837 0L1753 0L1670 0L1586 0L1503 0L1419 0L1336 0L1252 0L1169 0L1085 0L1002 0L918 0L835 0L751 0L668 0L584 0L501 0L417 0L334 0L250 0L167 0L83 0L0 0Z" fill="#2dc7ed"></path><path d="M0 991L83 1124L167 756L250 755L334 1081L417 931L501 797L584 958L668 750L751 816L835 951L918 1011L1002 1023L1085 968L1169 925L1252 1091L1336 1016L1419 775L1503 997L1586 994L1670 946L1753 911L1837 1014L1920 870L1920 0L1837 0L1753 0L1670 0L1586 0L1503 0L1419 0L1336 0L1252 0L1169 0L1085 0L1002 0L918 0L835 0L751 0L668 0L584 0L501 0L417 0L334 0L250 0L167 0L83 0L0 0Z" fill="#2fb3de"></path><path d="M0 729L83 988L167 813L250 703L334 1009L417 814L501 970L584 993L668 907L751 912L835 701L918 700L1002 919L1085 820L1169 956L1252 798L1336 1002L1419 880L1503 823L1586 875L1670 975L1753 993L1837 870L1920 688L1920 0L1837 0L1753 0L1670 0L1586 0L1503 0L1419 0L1336 0L1252 0L1169 0L1085 0L1002 0L918 0L835 0L751 0L668 0L584 0L501 0L417 0L334 0L250 0L167 0L83 0L0 0Z" fill="#339fcd"></path><path d="M0 746L83 783L167 844L250 745L334 752L417 664L501 669L584 633L668 729L751 833L835 648L918 709L1002 680L1085 679L1169 874L1252 871L1336 887L1419 731L1503 667L1586 684L1670 829L1753 692L1837 656L1920 624L1920 0L1837 0L1753 0L1670 0L1586 0L1503 0L1419 0L1336 0L1252 0L1169 0L1085 0L1002 0L918 0L835 0L751 0L668 0L584 0L501 0L417 0L334 0L250 0L167 0L83 0L0 0Z" fill="#368cbb"></path><path d="M0 744L83 832L167 767L250 719L334 607L417 627L501 799L584 788L668 809L751 633L835 732L918 635L1002 763L1085 816L1169 840L1252 804L1336 828L1419 807L1503 769L1586 624L1670 829L1753 742L1837 828L1920 610L1920 0L1837 0L1753 0L1670 0L1586 0L1503 0L1419 0L1336 0L1252 0L1169 0L1085 0L1002 0L918 0L835 0L751 0L668 0L584 0L501 0L417 0L334 0L250 0L167 0L83 0L0 0Z" fill="#3979a8"></path><path d="M0 592L83 564L167 459L250 731L334 463L417 681L501 706L584 740L668 635L751 509L835 462L918 639L1002 561L1085 636L1169 503L1252 729L1336 553L1419 706L1503 574L1586 558L1670 633L1753 669L1837 739L1920 510L1920 0L1837 0L1753 0L1670 0L1586 0L1503 0L1419 0L1336 0L1252 0L1169 0L1085 0L1002 0L918 0L835 0L751 0L668 0L584 0L501 0L417 0L334 0L250 0L167 0L83 0L0 0Z" fill="#396794"></path><path d="M0 647L83 634L167 403L250 482L334 528L417 495L501 511L584 457L668 522L751 456L835 479L918 587L1002 538L1085 648L1169 516L1252 592L1336 599L1419 576L1503 419L1586 453L1670 633L1753 566L1837 516L1920 478L1920 0L1837 0L1753 0L1670 0L1586 0L1503 0L1419 0L1336 0L1252 0L1169 0L1085 0L1002 0L918 0L835 0L751 0L668 0L584 0L501 0L417 0L334 0L250 0L167 0L83 0L0 0Z" fill="#385580"></path><path d="M0 490L83 351L167 395L250 542L334 551L417 512L501 517L584 384L668 438L751 512L835 531L918 492L1002 322L1085 538L1169 466L1252 445L1336 328L1419 332L1503 388L1586 466L1670 460L1753 323L1837 415L1920 516L1920 0L1837 0L1753 0L1670 0L1586 0L1503 0L1419 0L1336 0L1252 0L1169 0L1085 0L1002 0L918 0L835 0L751 0L668 0L584 0L501 0L417 0L334 0L250 0L167 0L83 0L0 0Z" fill="#34446b"></path><path d="M0 265L83 405L167 415L250 311L334 398L417 343L501 331L584 400L668 355L751 428L835 398L918 264L1002 455L1085 412L1169 376L1252 389L1336 399L1419 365L1503 337L1586 354L1670 329L1753 312L1837 245L1920 467L1920 0L1837 0L1753 0L1670 0L1586 0L1503 0L1419 0L1336 0L1252 0L1169 0L1085 0L1002 0L918 0L835 0L751 0L668 0L584 0L501 0L417 0L334 0L250 0L167 0L83 0L0 0Z" fill="#2f3457"></path><path d="M0 207L83 272L167 231L250 186L334 247L417 178L501 293L584 268L668 180L751 327L835 373L918 277L1002 253L1085 344L1169 284L1252 180L1336 339L1419 331L1503 236L1586 315L1670 250L1753 150L1837 324L1920 311L1920 0L1837 0L1753 0L1670 0L1586 0L1503 0L1419 0L1336 0L1252 0L1169 0L1085 0L1002 0L918 0L835 0L751 0L668 0L584 0L501 0L417 0L334 0L250 0L167 0L83 0L0 0Z" fill="#282543"></path><path d="M0 184L83 192L167 115L250 254L334 251L417 269L501 107L584 92L668 277L751 157L835 221L918 253L1002 82L1085 198L1169 221L1252 141L1336 89L1419 101L1503 260L1586 88L1670 98L1753 254L1837 213L1920 158L1920 0L1837 0L1753 0L1670 0L1586 0L1503 0L1419 0L1336 0L1252 0L1169 0L1085 0L1002 0L918 0L835 0L751 0L668 0L584 0L501 0L417 0L334 0L250 0L167 0L83 0L0 0Z" fill="#1f1731"></path><path d="M0 105L83 127L167 150L250 117L334 75L417 38L501 154L584 59L668 8L751 53L835 91L918 79L1002 167L1085 144L1169 185L1252 145L1336 40L1419 163L1503 27L1586 179L1670 144L1753 108L1837 140L1920 152L1920 0L1837 0L1753 0L1670 0L1586 0L1503 0L1419 0L1336 0L1252 0L1169 0L1085 0L1002 0L918 0L835 0L751 0L668 0L584 0L501 0L417 0L334 0L250 0L167 0L83 0L0 0Z" fill="#17051f"></path></svg>