<svg xmlns="http://www.w3.org/2000/svg" version="1.1" xmlns:xlink="http://www.w3.org/1999/xlink" xmlns:svgjs="http://svgjs.com/svgjs" width="1440" height="920" preserveAspectRatio="none" viewBox="0 0 1440 920"><g mask="url(&quot;#SvgjsMask6969&quot;)" fill="none"><rect width="1440" height="920" x="0" y="0" fill="url(#SvgjsLinearGradient6970)"></rect><path d="M853 515L852 867" stroke-width="10" stroke="url(#SvgjsLinearGradient6971)" stroke-linecap="round" class="Up"></path><path d="M1159 824L1158 1146" stroke-width="8" stroke="url(#SvgjsLinearGradient6972)" stroke-linecap="round" class="Down"></path><path d="M1321 160L1320 601" stroke-width="10" stroke="url(#SvgjsLinearGradient6971)" stroke-linecap="round" class="Up"></path><path d="M113 803L112 559" stroke-width="10" stroke="url(#SvgjsLinearGradient6971)" stroke-linecap="round" class="Up"></path><path d="M1061 259L1060 -235" stroke-width="10" stroke="url(#SvgjsLinearGradient6972)" stroke-linecap="round" class="Down"></path><path d="M407 774L406 209" stroke-width="6" stroke="url(#SvgjsLinearGradient6971)" stroke-linecap="round" class="Up"></path><path d="M1268 816L1267 185" stroke-width="6" stroke="url(#SvgjsLinearGradient6971)" stroke-linecap="round" class="Up"></path><path d="M54 531L53 30" stroke-width="6" stroke="url(#SvgjsLinearGradient6971)" stroke-linecap="round" class="Up"></path><path d="M410 601L409 -32" stroke-width="8" stroke="url(#SvgjsLinearGradient6971)" stroke-linecap="round" class="Up"></path><path d="M701 791L700 163" stroke-width="6" stroke="url(#SvgjsLinearGradient6971)" stroke-linecap="round" class="Up"></path><path d="M1113 553L1112 -94" stroke-width="8" stroke="url(#SvgjsLinearGradient6972)" stroke-linecap="round" class="Down"></path><path d="M594 394L593 721" stroke-width="6" stroke="url(#SvgjsLinearGradient6972)" stroke-linecap="round" class="Down"></path><path d="M1363 187L1362 -189" stroke-width="8" stroke="url(#SvgjsLinearGradient6972)" stroke-linecap="round" class="Down"></path><path d="M588 821L587 1150" stroke-width="6" stroke="url(#SvgjsLinearGradient6972)" stroke-linecap="round" class="Down"></path><path d="M385 827L384 1197" stroke-width="6" stroke="url(#SvgjsLinearGradient6971)" stroke-linecap="round" class="Up"></path><path d="M995 496L994 133" stroke-width="10" stroke="url(#SvgjsLinearGradient6972)" stroke-linecap="round" class="Down"></path><path d="M1264 890L1263 1568" stroke-width="8" stroke="url(#SvgjsLinearGradient6972)" stroke-linecap="round" class="Down"></path><path d="M790 752L789 1131" stroke-width="10" stroke="url(#SvgjsLinearGradient6972)" stroke-linecap="round" class="Down"></path><path d="M628 464L627 940" stroke-width="8" stroke="url(#SvgjsLinearGradient6972)" stroke-linecap="round" class="Down"></path><path d="M188 388L187 -168" stroke-width="6" stroke="url(#SvgjsLinearGradient6971)" stroke-linecap="round" class="Up"></path><path d="M23 878L22 462" stroke-width="10" stroke="url(#SvgjsLinearGradient6972)" stroke-linecap="round" class="Down"></path><path d="M1080 58L1079 689" stroke-width="10" stroke="url(#SvgjsLinearGradient6971)" stroke-linecap="round" class="Up"></path><path d="M1242 359L1241 711" stroke-width="6" stroke="url(#SvgjsLinearGradient6972)" stroke-linecap="round" class="Down"></path><path d="M420 487L419 131" stroke-width="10" stroke="url(#SvgjsLinearGradient6972)" stroke-linecap="round" class="Down"></path><path d="M32 227L31 546" stroke-width="8" stroke="url(#SvgjsLinearGradient6972)" stroke-linecap="round" class="Down"></path><path d="M51 275L50 -83" stroke-width="10" stroke="url(#SvgjsLinearGradient6972)" stroke-linecap="round" class="Down"></path><path d="M1024 628L1023 209" stroke-width="6" stroke="url(#SvgjsLinearGradient6972)" stroke-linecap="round" class="Down"></path><path d="M53 189L52 787" stroke-width="6" stroke="url(#SvgjsLinearGradient6971)" stroke-linecap="round" class="Up"></path><path d="M55 354L54 56" stroke-width="6" stroke="url(#SvgjsLinearGradient6971)" stroke-linecap="round" class="Up"></path><path d="M229 297L228 -61" stroke-width="6" stroke="url(#SvgjsLinearGradient6971)" stroke-linecap="round" class="Up"></path><path d="M305 581L304 1119" stroke-width="6" stroke="url(#SvgjsLinearGradient6971)" stroke-linecap="round" class="Up"></path><path d="M1222 178L1221 -117" stroke-width="10" stroke="url(#SvgjsLinearGradient6972)" stroke-linecap="round" class="Down"></path><path d="M49 694L48 1289" stroke-width="10" stroke="url(#SvgjsLinearGradient6972)" stroke-linecap="round" class="Down"></path><path d="M1301 298L1300 752" stroke-width="10" stroke="url(#SvgjsLinearGradient6972)" stroke-linecap="round" class="Down"></path><path d="M1298 722L1297 1152" stroke-width="6" stroke="url(#SvgjsLinearGradient6971)" stroke-linecap="round" class="Up"></path><path d="M1288 47L1287 499" stroke-width="10" stroke="url(#SvgjsLinearGradient6972)" stroke-linecap="round" class="Down"></path></g><defs><mask id="SvgjsMask6969"><rect width="1440" height="920" fill="#ffffff"></rect></mask><linearGradient x1="9.03%" y1="-14.13%" x2="90.97%" y2="114.13%" gradientUnits="userSpaceOnUse" id="SvgjsLinearGradient6970"><stop stop-color="rgba(4, 242, 72, 1)" offset="0.02"></stop><stop stop-color="rgba(22, 36, 18, 1)" offset="1"></stop></linearGradient><linearGradient x1="0%" y1="100%" x2="0%" y2="0%" id="SvgjsLinearGradient6971"><stop stop-color="rgba(10, 39, 115, 0)" offset="0"></stop><stop stop-color="rgba(10, 39, 115, 0.39)" offset="1"></stop></linearGradient><linearGradient x1="0%" y1="0%" x2="0%" y2="100%" id="SvgjsLinearGradient6972"><stop stop-color="rgba(10, 39, 115, 0)" offset="0"></stop><stop stop-color="rgba(10, 39, 115, 0.39)" offset="1"></stop></linearGradient></defs></svg>